<svg xmlns="http://www.w3.org/2000/svg" viewBox="0 0 32 32">
    <style>
        .bg { fill: #ffffff; }
        .fg { fill: #0f172a; }

        @media (prefers-color-scheme: dark) {
        .bg { fill: #161616; }
        .fg { fill: #ededed; }
        }
    </style>

    <!-- Background -->
    <rect x="2" y="2" width="28" height="28" rx="6" class="bg"/>

    <!-- C -->
    <path
            class="fg"
            d="M14.2 10.2
       c-2.4 0-4.2 1.9-4.2 5
       s1.8 5 4.2 5
       c1.1 0 2-.3 2.8-.9
       l-.7-1.3
       c-.6.4-1.2.6-2 .6
       c-1.5 0-2.5-1.3-2.5-3.4
       s1-3.4 2.5-3.4
       c.8 0 1.4.2 2 .6
       l.7-1.3
       c-.8-.6-1.7-.9-2.8-.9z"
    />

    <!-- L -->
    <path
            class="fg"
            d="M18.8 10.2h1.7v8.3h4.3v1.7h-6z"
    />
</svg>
